<?xml version="1.0" encoding="UTF-8" standalone="no"?>
<!-- Created with Inkscape (http://www.inkscape.org/) -->

<svg
   xmlns:dc="http://purl.org/dc/elements/1.1/"
   xmlns:cc="http://creativecommons.org/ns#"
   xmlns:rdf="http://www.w3.org/1999/02/22-rdf-syntax-ns#"
   xmlns:svg="http://www.w3.org/2000/svg"
   xmlns="http://www.w3.org/2000/svg"
   xmlns:xlink="http://www.w3.org/1999/xlink"
   xmlns:sodipodi="http://sodipodi.sourceforge.net/DTD/sodipodi-0.dtd"
   xmlns:inkscape="http://www.inkscape.org/namespaces/inkscape"
   width="202"
   height="301.00003"
   id="svg2"
   version="1.1"
   inkscape:version="0.48.4 r9939"
   sodipodi:docname="textil.svg">
  <defs
     id="defs4">
    <linearGradient
       id="linearGradient3763">
      <stop
         style="stop-color:#8e8e8e;stop-opacity:1;"
         offset="0"
         id="stop3765" />
      <stop
         style="stop-color:#000000;stop-opacity:1;"
         offset="1"
         id="stop3767" />
    </linearGradient>
    <linearGradient
       id="linearGradient3755">
      <stop
         style="stop-color:#000000;stop-opacity:1;"
         offset="0"
         id="stop3757" />
      <stop
         style="stop-color:#000000;stop-opacity:0;"
         offset="1"
         id="stop3759" />
    </linearGradient>
    <linearGradient
       inkscape:collect="always"
       xlink:href="#linearGradient3763"
       id="linearGradient3769"
       x1="0.25253814"
       y1="1002.3622"
       x2="10"
       y2="1002.3622"
       gradientUnits="userSpaceOnUse"
       gradientTransform="matrix(1,0,0,1.1,0,-105.23622)" />
  </defs>
  <sodipodi:namedview
     id="base"
     pagecolor="#ffffff"
     bordercolor="#666666"
     borderopacity="1.0"
     inkscape:pageopacity="0.0"
     inkscape:pageshadow="2"
     inkscape:zoom="0.98994949"
     inkscape:cx="74.582751"
     inkscape:cy="156.49716"
     inkscape:document-units="px"
     inkscape:current-layer="layer1"
     showgrid="false"
     fit-margin-top="0"
     fit-margin-left="0"
     fit-margin-right="0"
     fit-margin-bottom="0"
     inkscape:window-width="1280"
     inkscape:window-height="763"
     inkscape:window-x="0"
     inkscape:window-y="16"
     inkscape:window-maximized="1"
     showguides="true"
     inkscape:guide-bbox="true" />
  <metadata
     id="metadata7">
    <rdf:RDF>
      <cc:Work
         rdf:about="">
        <dc:format>image/svg+xml</dc:format>
        <dc:type
           rdf:resource="http://purl.org/dc/dcmitype/StillImage" />
        <dc:title></dc:title>
      </cc:Work>
    </rdf:RDF>
  </metadata>
  <g
     inkscape:label="Layer 1"
     inkscape:groupmode="layer"
     id="layer1"
     transform="translate(96,-751.36216)">
    <path
       style="fill:url(#linearGradient3769);fill-opacity:1;stroke:none"
       d="m 0,942.36218 5,0 5,0 0,95.00002 -5,15 -5,-15 z"
       id="rect2985"
       inkscape:connector-curvature="0"
       sodipodi:nodetypes="ccccccc" />
    <g
       id="g3286"
       inkscape:export-filename="/home/olf/Projekte/Reparaturkarte/textil_rund.png"
       inkscape:export-xdpi="89.10891"
       inkscape:export-ydpi="89.10891">
      <path
         transform="matrix(1.0035842,0,0,1,-45.537633,7.1428575)"
         d="m 150,845.2193 c 0,55.22847 -44.61162,100 -99.642857,100 -55.0312318,0 -99.64286,-44.77153 -99.64286,-100 0,-55.22848 44.6116282,-100 99.64286,-100 55.031237,0 99.642857,44.77152 99.642857,100 z"
         sodipodi:ry="100"
         sodipodi:rx="99.64286"
         sodipodi:cy="845.2193"
         sodipodi:cx="50.357143"
         id="path3771"
         style="fill:#006680;fill-opacity:1;stroke:#000000;stroke-width:1.99642539;stroke-miterlimit:4;stroke-opacity:1;stroke-dasharray:none"
         sodipodi:type="arc" />
      <path
         sodipodi:nodetypes="cssscsss"
         inkscape:connector-curvature="0"
         id="path3773"
         transform="translate(-96,751.36216)"
         d="m 27.049107,57.821429 c 0,0 42.194889,75.728951 50.919643,90.834821 2.428563,4.20477 6.179339,11.47858 12.566965,6.875 6.939154,-5.00107 2.221384,-10.42982 -0.687501,-14.28571 C 77.567207,124.96637 27.049107,57.821429 27.049107,57.821429 z m 55.1875,85.852681 c 6.337157,-4.10478 12.465143,6.2075 7.410714,9.81696 -5.201408,3.71442 -12.58162,-6.46759 -7.410714,-9.81696 z"
         style="fill:#ffffff;stroke:none" />
      <path
         transform="translate(-94.989847,741.26063)"
         d="m 180.05969,87.479034 c 0,19.735426 -15.94219,35.734146 -35.60788,35.734146 -19.66568,0 -35.60787,-15.99872 -35.60787,-35.734146 0,-19.735424 15.94219,-35.734146 35.60787,-35.734146 19.66569,0 35.60788,15.998722 35.60788,35.734146 z"
         sodipodi:ry="35.734146"
         sodipodi:rx="35.607876"
         sodipodi:cy="87.479034"
         sodipodi:cx="144.45181"
         id="path3779"
         style="fill:#ffffff;fill-opacity:1;stroke:none"
         sodipodi:type="arc" />
      <path
         sodipodi:nodetypes="cssssc"
         transform="translate(-96,751.36216)"
         inkscape:connector-curvature="0"
         id="path3782"
         d="m 157.83634,163.36674 c -39.39595,-1.01014 7.3236,-35.86041 -13.13199,-38.63832 -17.3823,-2.36056 -65.295661,49.51164 -37.1231,48.73986 27.52096,-0.75394 -22.728436,-6.566 -20.203055,-21.46575 3.852349,-22.72885 20.960675,-10.10152 27.779195,-34.59772 6.05135,-21.740029 -20.455594,-48.739865 14.14213,-69.70053"
         style="fill:none;stroke:#ffffff;stroke-width:1.5;stroke-linecap:butt;stroke-linejoin:miter;stroke-miterlimit:4;stroke-opacity:1;stroke-dasharray:none" />
    </g>
  </g>
</svg>
